<svg width="40" height="40" viewBox="0 0 40 40" fill="none" xmlns="http://www.w3.org/2000/svg">
<g clip-path="url(#clip0_6_8)">
<path fill-rule="evenodd" clip-rule="evenodd" d="M20 0C8.95431 0 0 8.95431 0 20C0 31.0457 8.95431 40 20 40C22.7684 40 25.4055 39.4375 27.8031 38.4206C28.5129 38.1196 28.8678 37.969 29.1712 37.939C29.4746 37.909 29.8006 37.9765 30.4526 38.1113L34.1485 38.8759C36.8396 39.4326 38.1852 39.7109 38.948 38.948C39.7109 38.1852 39.4325 36.8396 38.8759 34.1485L38.1113 30.4526C37.9764 29.8006 37.909 29.4746 37.939 29.1712C37.969 28.8678 38.1195 28.5129 38.4206 27.8031C39.4375 25.4055 40 22.7684 40 20C40 8.95431 31.0457 0 20 0Z" fill="#279AED"/>
<path fill-rule="evenodd" clip-rule="evenodd" d="M20 4C11.1634 4 4 11.1634 4 20C4 28.8366 11.1634 36 20 36C28.8366 36 36 28.8366 36 20C36 15.7565 34.3143 11.6869 31.3137 8.68629C28.3131 5.68571 24.2435 4 20 4ZM17.1705 17.2716C16.4484 17.2716 15.7263 17.9916 15.0021 18.7137C14.2737 19.44 13.5432 20.1684 12.8084 20.1684C12.4215 20.1591 12.0476 20.3087 11.774 20.5824C11.5003 20.8561 11.3507 21.2299 11.36 21.6168L12.8084 24.5305C12.8084 24.5305 12.8084 28.8926 14.2737 30.3411C15.7389 31.7895 14.2737 31.7895 14.2737 31.7895C10.0252 30.0812 7.08733 26.1423 6.66105 21.5832C6.3255 18.2213 7.28974 14.8585 9.35578 12.1853C9.58894 11.8686 9.9532 11.6748 10.3461 11.6584C10.739 11.6421 11.1181 11.8049 11.3768 12.1011C11.7036 12.5772 12.232 12.8756 12.8084 12.9095C14.2737 12.9095 18.6358 17.2716 17.1705 17.2716ZM29.3136 24.106C30.1523 24.5662 30.9454 25.0013 31.5032 24.7495C33.9453 23.6547 33.1032 17.1368 33.1032 17.1368C33.1032 17.1368 31.8737 11.4442 28.5895 10.2147C28.1401 10.0649 27.7977 10.6902 27.4103 11.3978C26.9702 12.2016 26.4719 13.1116 25.6926 13.1116C24.2274 13.1116 22.7789 13.1284 22.7789 14.5768C22.7789 15.3011 23.5074 16.0295 24.2358 16.7579C24.9642 17.4863 25.6926 18.2147 25.6926 18.9389C25.6926 20.3874 25.6926 23.2842 27.1411 23.2842C27.8159 23.2842 28.582 23.7046 29.3136 24.106Z" fill="white"/>
</g>
<defs>
<clipPath id="clip0_6_8">
<rect width="40" height="40" fill="white"/>
</clipPath>
</defs>
</svg>
